<?xml version="1.0" encoding="UTF-8"?>
<svg width="764.28" height="893.04" fill="none" version="1.1" viewBox="0 0 764.28 893.04" xmlns="http://www.w3.org/2000/svg">
 <rect x="-1671.3" y="-169.83" width="2478" height="1459.3" display="none" fill="#241c1c" fill-rule="evenodd" stroke-width="1.698"/>
 <g transform="translate(-1082.7 -31.826)" display="none">
  <path d="m-81.307 273.77-91.924 91.924c-7.029 7.029-7.029 18.426 0 25.456l91.924 91.924c7.0295 7.029 18.426 7.029 25.456 0l91.924-91.924c7.0294-7.03 7.0294-18.427 0-25.456l-91.924-91.924c-7.0295-7.0294-18.426-7.0294-25.456 0zm-93.338 90.51c-7.81 7.81-7.81 20.473 0 28.284l91.924 91.924c7.8105 7.81 20.474 7.81 28.284 0l91.924-91.924c7.8105-7.811 7.8105-20.474 0-28.284l-91.924-91.924c-7.8105-7.8105-20.474-7.8105-28.284 0zm223.45 39.598-91.924 91.924c-7.0294 7.029-7.0294 18.426 0 25.455l91.924 91.924c7.0294 7.03 18.426 7.03 25.456 0l91.924-91.924c7.029-7.029 7.029-18.426 0-25.455l-91.924-91.924c-7.0294-7.03-18.426-7.03-25.456 0zm-93.338 90.509c-7.8105 7.811-7.8105 20.474 0 28.285l91.924 91.923c7.8105 7.811 20.474 7.811 28.284 0l91.924-91.923c7.81-7.811 7.81-20.474 0-28.285l-91.924-91.924c-7.8105-7.81-20.474-7.81-28.284 0zm131.52 131.52 91.924-91.924c7.029-7.029 18.426-7.029 25.455 0l91.924 91.924c7.03 7.03 7.03 18.427 0 25.456l-91.924 91.924c-7.029 7.029-18.426 7.029-25.455 0l-91.924-91.924c-7.03-7.029-7.03-18.426 0-25.456zm-1.415 26.87c-7.8101-7.81-7.8101-20.474 0-28.284l91.924-91.924c7.811-7.81 20.474-7.81 28.285 0l91.923 91.924c7.811 7.81 7.811 20.474 0 28.284l-91.923 91.924c-7.811 7.811-20.474 7.811-28.285 0zm-36.769-509.12-91.924 91.924c-7.0294 7.0294-7.0294 18.426 0 25.456l91.924 91.924c7.0294 7.029 18.426 7.029 25.456 0l91.924-91.924c7.029-7.0294 7.029-18.426 0-25.456l-91.924-91.924c-7.0294-7.0295-18.426-7.0295-25.456 0zm-93.338 90.51c-7.8105 7.8105-7.8105 20.474 0 28.284l91.924 91.924c7.8105 7.811 20.474 7.811 28.284 0l91.924-91.924c7.81-7.8105 7.81-20.474 0-28.284l-91.924-91.924c-7.8105-7.8105-20.474-7.8105-28.284 0zm131.52 131.52 91.924-91.924c7.029-7.0294 18.426-7.0294 25.455 0l91.924 91.924c7.03 7.029 7.03 18.426 0 25.456l-91.924 91.924c-7.029 7.029-18.426 7.029-25.455 0l-91.924-91.924c-7.03-7.03-7.03-18.427 0-25.456zm-1.415 26.87c-7.8101-7.811-7.8101-20.474 0-28.284l91.924-91.924c7.811-7.8105 20.474-7.8105 28.285 0l91.923 91.924c7.811 7.81 7.811 20.473 0 28.284l-91.923 91.924c-7.811 7.81-20.474 7.81-28.285 0zm223.45 11.314-91.924 91.924c-7.029 7.029-7.029 18.426 0 25.455l91.924 91.924c7.03 7.03 18.427 7.03 25.456 0l91.924-91.924c7.029-7.029 7.029-18.426 0-25.455l-91.924-91.924c-7.029-7.03-18.426-7.03-25.456 0zm-93.338 90.509c-7.81 7.811-7.81 20.474 0 28.285l91.924 91.923c7.81 7.811 20.474 7.811 28.284 0l91.924-91.923c7.811-7.811 7.811-20.474 0-28.285l-91.924-91.924c-7.81-7.81-20.474-7.81-28.284 0zm-128.69-388.91 91.924-91.924c7.029-7.03 18.426-7.03 25.455 0l91.924 91.924c7.03 7.029 7.03 18.426 0 25.456l-91.924 91.924c-7.029 7.0294-18.426 7.0294-25.455 0l-91.924-91.924c-7.03-7.0295-7.03-18.426 0-25.456zm-1.415 26.87c-7.8101-7.8105-7.8101-20.474 0-28.285l91.924-91.923c7.811-7.811 20.474-7.811 28.285 0l91.923 91.923c7.811 7.811 7.811 20.474 0 28.285l-91.923 91.924c-7.811 7.8104-20.474 7.8104-28.285 0zm223.45 11.314-91.924 91.924c-7.029 7.0294-7.029 18.426 0 25.456l91.924 91.924c7.03 7.029 18.427 7.029 25.456 0l91.924-91.924c7.029-7.0295 7.029-18.426 0-25.456l-91.924-91.924c-7.029-7.0295-18.426-7.0295-25.456 0zm-93.338 90.51c-7.81 7.8105-7.81 20.474 0 28.284l91.924 91.924c7.81 7.811 20.474 7.811 28.284 0l91.924-91.924c7.811-7.8105 7.811-20.474 0-28.284l-91.924-91.924c-7.81-7.8105-20.474-7.8105-28.284 0zm131.52 131.52 91.924-91.924c7.029-7.0294 18.426-7.0294 25.456 0l91.924 91.924c7.029 7.029 7.029 18.426 0 25.456l-91.924 91.924c-7.03 7.029-18.427 7.029-25.456 0l-91.924-91.924c-7.03-7.03-7.03-18.427 0-25.456zm-1.414 26.87c-7.811-7.811-7.811-20.474 0-28.284l91.924-91.924c7.81-7.8105 20.473-7.8105 28.284 0l91.924 91.924c7.81 7.81 7.81 20.473 0 28.284l-91.924 91.924c-7.811 7.81-20.474 7.81-28.284 0z" clip-rule="evenodd" display="inline" fill="#fff" fill-rule="evenodd" opacity=".1"/>
  <circle cx="557.21" cy="230" r="34" display="inline" fill="#40fff4"/>
  <circle cx="602.21" cy="353" r="11" display="inline" fill="#66b6ff"/>
  <circle cx="476.71" cy="414.5" r="2.5" display="inline" fill="#ab41ff"/>
  <circle cx="611.71" cy="304.5" r="2.5" display="inline" fill="#ffd541"/>
  <circle cx="566.71" cy="561.5" r="2.5" display="inline" fill="#418dff"/>
  <circle cx="566.21" cy="487" r="25" display="inline" fill="#ffb340"/>
  <circle cx="674.21" cy="544" r="11" display="inline" fill="#ff4040"/>
  <rect transform="rotate(30)" x="585.15" y="68.055" width="30" height="30" rx="6" display="inline" fill="#4b6ff0"/>
  <rect transform="rotate(-45)" x="41.719" y="754.78" width="30" height="30" rx="6" display="inline" fill="#bdff00" opacity=".5"/>
 </g>
 <g transform="rotate(-90 -364.63 568.1)" display="none">
  <circle cx="97.299" cy="-106" r="34" fill="#40fff4"/>
  <circle cx="142.3" cy="17" r="11" fill="#66b6ff"/>
  <circle cx="16.799" cy="78.5" r="2.5" fill="#ab41ff"/>
  <circle cx="151.8" cy="-31.5" r="2.5" fill="#ffd541"/>
  <circle cx="106.8" cy="225.5" r="2.5" fill="#418dff"/>
  <circle cx="106.3" cy="151" r="25" fill="#ffb340"/>
  <circle cx="214.3" cy="208" r="11" fill="#ff4040"/>
  <rect transform="rotate(30)" x="18.848" y="7.0275" width="30" height="30" rx="6" fill="#4b6ff0"/>
  <rect transform="rotate(-45)" x="-45.901" y="191.99" width="30" height="30" rx="6" fill="#bdff00" opacity=".5"/>
 </g>
 <g transform="translate(-853.45 -28.263)" clip-rule="evenodd" fill="#fff" fill-rule="evenodd">
  <path d="m140.64 162.73-91.924 91.924c-7.029 7.029-7.029 18.426 0 25.456l91.924 91.924c7.0295 7.029 18.426 7.029 25.456 0l91.924-91.924c7.0294-7.03 7.0294-18.427 0-25.456l-91.924-91.924c-7.0295-7.0294-18.426-7.0294-25.456 0zm-93.338 90.51c-7.81 7.81-7.81 20.473 0 28.284l91.924 91.924c7.8105 7.81 20.474 7.81 28.284 0l91.924-91.924c7.8105-7.811 7.8105-20.474 0-28.284l-91.924-91.924c-7.8105-7.8105-20.474-7.8105-28.284 0zm223.45 39.598-91.924 91.924c-7.0294 7.029-7.0294 18.426 0 25.455l91.924 91.924c7.0294 7.03 18.426 7.03 25.456 0l91.924-91.924c7.029-7.029 7.029-18.426 0-25.455l-91.924-91.924c-7.0294-7.03-18.426-7.03-25.456 0zm-93.338 90.509c-7.8105 7.811-7.8105 20.474 0 28.285l91.924 91.923c7.8105 7.811 20.474 7.811 28.284 0l91.924-91.923c7.81-7.811 7.81-20.474 0-28.285l-91.924-91.924c-7.8105-7.81-20.474-7.81-28.284 0zm131.52 131.52 91.924-91.924c7.029-7.029 18.426-7.029 25.455 0l91.924 91.924c7.03 7.03 7.03 18.427 0 25.456l-91.924 91.924c-7.029 7.029-18.426 7.029-25.455 0l-91.924-91.924c-7.03-7.029-7.03-18.426 0-25.456zm-1.415 26.87c-7.8101-7.81-7.8101-20.474 0-28.284l91.924-91.924c7.811-7.81 20.474-7.81 28.285 0l91.923 91.924c7.811 7.81 7.811 20.474 0 28.284l-91.923 91.924c-7.811 7.811-20.474 7.811-28.285 0zm-36.769-509.12-91.924 91.924c-7.0294 7.0294-7.0294 18.426 0 25.456l91.924 91.924c7.0294 7.029 18.426 7.029 25.456 0l91.924-91.924c7.029-7.0294 7.029-18.426 0-25.456l-91.924-91.924c-7.0294-7.0295-18.426-7.0295-25.456 0zm-93.338 90.51c-7.8105 7.8105-7.8105 20.474 0 28.284l91.924 91.924c7.8105 7.811 20.474 7.811 28.284 0l91.924-91.924c7.81-7.8105 7.81-20.474 0-28.284l-91.924-91.924c-7.8105-7.8105-20.474-7.8105-28.284 0zm131.52 131.52 91.924-91.924c7.029-7.0294 18.426-7.0294 25.455 0l91.924 91.924c7.03 7.029 7.03 18.426 0 25.456l-91.924 91.924c-7.029 7.029-18.426 7.029-25.455 0l-91.924-91.924c-7.03-7.03-7.03-18.427 0-25.456zm-1.415 26.87c-7.8101-7.811-7.8101-20.474 0-28.284l91.924-91.924c7.811-7.8105 20.474-7.8105 28.285 0l91.923 91.924c7.811 7.81 7.811 20.473 0 28.284l-91.923 91.924c-7.811 7.81-20.474 7.81-28.285 0zm223.45 11.314-91.924 91.924c-7.029 7.029-7.029 18.426 0 25.455l91.924 91.924c7.03 7.03 18.427 7.03 25.456 0l91.924-91.924c7.029-7.029 7.029-18.426 0-25.455l-91.924-91.924c-7.029-7.03-18.426-7.03-25.456 0zm-93.338 90.509c-7.81 7.811-7.81 20.474 0 28.285l91.924 91.923c7.81 7.811 20.474 7.811 28.284 0l91.924-91.923c7.811-7.811 7.811-20.474 0-28.285l-91.924-91.924c-7.81-7.81-20.474-7.81-28.284 0zm-128.69-388.91 91.924-91.924c7.029-7.03 18.426-7.03 25.455 0l91.924 91.924c7.03 7.029 7.03 18.426 0 25.456l-91.924 91.924c-7.029 7.0294-18.426 7.0294-25.455 0l-91.924-91.924c-7.03-7.0295-7.03-18.426 0-25.456zm-1.415 26.87c-7.8101-7.8105-7.8101-20.474 0-28.285l91.924-91.923c7.811-7.811 20.474-7.811 28.285 0l91.923 91.923c7.811 7.811 7.811 20.474 0 28.285l-91.923 91.924c-7.811 7.8104-20.474 7.8104-28.285 0zm223.45 11.314-91.924 91.924c-7.029 7.0294-7.029 18.426 0 25.456l91.924 91.924c7.03 7.029 18.427 7.029 25.456 0l91.924-91.924c7.029-7.0295 7.029-18.426 0-25.456l-91.924-91.924c-7.029-7.0295-18.426-7.0295-25.456 0zm-93.338 90.51c-7.81 7.8105-7.81 20.474 0 28.284l91.924 91.924c7.81 7.811 20.474 7.811 28.284 0l91.924-91.924c7.811-7.8105 7.811-20.474 0-28.284l-91.924-91.924c-7.81-7.8105-20.474-7.8105-28.284 0zm131.52 131.52 91.924-91.924c7.029-7.0294 18.426-7.0294 25.456 0l91.924 91.924c7.029 7.029 7.029 18.426 0 25.456l-91.924 91.924c-7.03 7.029-18.427 7.029-25.456 0l-91.924-91.924c-7.03-7.03-7.03-18.427 0-25.456zm-1.414 26.87c-7.811-7.811-7.811-20.474 0-28.284l91.924-91.924c7.81-7.8105 20.473-7.8105 28.284 0l91.924 91.924c7.81 7.81 7.81 20.473 0 28.284l-91.924 91.924c-7.811 7.81-20.474 7.81-28.284 0z" opacity=".1"/>
  <path d="m141.23 421.6-91.924 91.924c-7.029 7.029-7.029 18.426 0 25.456l91.924 91.924c7.0295 7.029 18.426 7.029 25.456 0l91.924-91.924c7.0294-7.03 7.0294-18.427 0-25.456l-91.924-91.924c-7.0295-7.0294-18.426-7.0294-25.456 0zm-93.338 90.51c-7.81 7.81-7.81 20.473 0 28.284l91.924 91.924c7.8105 7.81 20.474 7.81 28.284 0l91.924-91.924c7.8105-7.811 7.8105-20.474 0-28.284l-91.924-91.924c-7.8105-7.8105-20.474-7.8105-28.284 0zm223.45 39.598-91.924 91.924c-7.0294 7.029-7.0294 18.426 0 25.455l91.924 91.924c7.0294 7.03 18.426 7.03 25.456 0l91.924-91.924c7.029-7.029 7.029-18.426 0-25.455l-91.924-91.924c-7.0294-7.03-18.426-7.03-25.456 0zm-93.338 90.509c-7.8105 7.811-7.8105 20.474 0 28.285l91.924 91.923c7.8105 7.811 20.474 7.811 28.284 0l91.924-91.923c7.81-7.811 7.81-20.474 0-28.285l-91.924-91.924c-7.8105-7.81-20.474-7.81-28.284 0zm131.52 131.52 91.924-91.924c7.029-7.029 18.426-7.029 25.455 0l91.924 91.924c7.03 7.03 7.03 18.427 0 25.456l-91.924 91.924c-7.029 7.029-18.426 7.029-25.455 0l-91.924-91.924c-7.03-7.029-7.03-18.426 0-25.456zm-1.415 26.87c-7.8101-7.81-7.8101-20.474 0-28.284l91.924-91.924c7.811-7.81 20.474-7.81 28.285 0l91.923 91.924c7.811 7.81 7.811 20.474 0 28.284l-91.923 91.924c-7.811 7.811-20.474 7.811-28.285 0zm-36.769-509.12-91.924 91.924c-7.0294 7.0294-7.0294 18.426 0 25.456l91.924 91.924c7.0294 7.029 18.426 7.029 25.456 0l91.924-91.924c7.029-7.0294 7.029-18.426 0-25.456l-91.924-91.924c-7.0294-7.0295-18.426-7.0295-25.456 0zm-93.338 90.51c-7.8105 7.8105-7.8105 20.474 0 28.284l91.924 91.924c7.8105 7.811 20.474 7.811 28.284 0l91.924-91.924c7.81-7.8105 7.81-20.474 0-28.284l-91.924-91.924c-7.8105-7.8105-20.474-7.8105-28.284 0zm131.52 131.52 91.924-91.924c7.029-7.0294 18.426-7.0294 25.455 0l91.924 91.924c7.03 7.029 7.03 18.426 0 25.456l-91.924 91.924c-7.029 7.029-18.426 7.029-25.455 0l-91.924-91.924c-7.03-7.03-7.03-18.427 0-25.456zm-1.415 26.87c-7.8101-7.811-7.8101-20.474 0-28.284l91.924-91.924c7.811-7.8105 20.474-7.8105 28.285 0l91.923 91.924c7.811 7.81 7.811 20.473 0 28.284l-91.923 91.924c-7.811 7.81-20.474 7.81-28.285 0zm223.45 11.314-91.924 91.924c-7.029 7.029-7.029 18.426 0 25.455l91.924 91.924c7.03 7.03 18.427 7.03 25.456 0l91.924-91.924c7.029-7.029 7.029-18.426 0-25.455l-91.924-91.924c-7.029-7.03-18.426-7.03-25.456 0zm-93.338 90.509c-7.81 7.811-7.81 20.474 0 28.285l91.924 91.923c7.81 7.811 20.474 7.811 28.284 0l91.924-91.923c7.811-7.811 7.811-20.474 0-28.285l-91.924-91.924c-7.81-7.81-20.474-7.81-28.284 0zm-128.69-388.91 91.924-91.924c7.029-7.03 18.426-7.03 25.455 0l91.924 91.924c7.03 7.029 7.03 18.426 0 25.456l-91.924 91.924c-7.029 7.0294-18.426 7.0294-25.455 0l-91.924-91.924c-7.03-7.0295-7.03-18.426 0-25.456zm-1.415 26.87c-7.8101-7.8105-7.8101-20.474 0-28.285l91.924-91.923c7.811-7.811 20.474-7.811 28.285 0l91.923 91.923c7.811 7.811 7.811 20.474 0 28.285l-91.923 91.924c-7.811 7.8104-20.474 7.8104-28.285 0zm223.45 11.314-91.924 91.924c-7.029 7.0294-7.029 18.426 0 25.456l91.924 91.924c7.03 7.029 18.427 7.029 25.456 0l91.924-91.924c7.029-7.0295 7.029-18.426 0-25.456l-91.924-91.924c-7.029-7.0295-18.426-7.0295-25.456 0zm-93.338 90.51c-7.81 7.8105-7.81 20.474 0 28.284l91.924 91.924c7.81 7.811 20.474 7.811 28.284 0l91.924-91.924c7.811-7.8105 7.811-20.474 0-28.284l-91.924-91.924c-7.81-7.8105-20.474-7.8105-28.284 0zm131.52 131.52 91.924-91.924c7.029-7.0294 18.426-7.0294 25.456 0l91.924 91.924c7.029 7.029 7.029 18.426 0 25.456l-91.924 91.924c-7.03 7.029-18.427 7.029-25.456 0l-91.924-91.924c-7.03-7.03-7.03-18.427 0-25.456zm-1.414 26.87c-7.811-7.811-7.811-20.474 0-28.284l91.924-91.924c7.81-7.8105 20.473-7.8105 28.284 0l91.924 91.924c7.81 7.81 7.81 20.473 0 28.284l-91.924 91.924c-7.811 7.81-20.474 7.81-28.284 0z" opacity=".1"/>
 </g>
 <g transform="translate(-1674 316.44)">
  <path d="m140.64 162.73-91.924 91.924c-7.029 7.029-7.029 18.426 0 25.456l91.924 91.924c7.0295 7.029 18.426 7.029 25.456 0l91.924-91.924c7.0294-7.03 7.0294-18.427 0-25.456l-91.924-91.924c-7.0295-7.0294-18.426-7.0294-25.456 0zm-93.338 90.51c-7.81 7.81-7.81 20.473 0 28.284l91.924 91.924c7.8105 7.81 20.474 7.81 28.284 0l91.924-91.924c7.8105-7.811 7.8105-20.474 0-28.284l-91.924-91.924c-7.8105-7.8105-20.474-7.8105-28.284 0zm223.45 39.598-91.924 91.924c-7.0294 7.029-7.0294 18.426 0 25.455l91.924 91.924c7.0294 7.03 18.426 7.03 25.456 0l91.924-91.924c7.029-7.029 7.029-18.426 0-25.455l-91.924-91.924c-7.0294-7.03-18.426-7.03-25.456 0zm-93.338 90.509c-7.8105 7.811-7.8105 20.474 0 28.285l91.924 91.923c7.8105 7.811 20.474 7.811 28.284 0l91.924-91.923c7.81-7.811 7.81-20.474 0-28.285l-91.924-91.924c-7.8105-7.81-20.474-7.81-28.284 0zm131.52 131.52 91.924-91.924c7.029-7.029 18.426-7.029 25.455 0l91.924 91.924c7.03 7.03 7.03 18.427 0 25.456l-91.924 91.924c-7.029 7.029-18.426 7.029-25.455 0l-91.924-91.924c-7.03-7.029-7.03-18.426 0-25.456zm-1.415 26.87c-7.8101-7.81-7.8101-20.474 0-28.284l91.924-91.924c7.811-7.81 20.474-7.81 28.285 0l91.923 91.924c7.811 7.81 7.811 20.474 0 28.284l-91.923 91.924c-7.811 7.811-20.474 7.811-28.285 0zm-36.769-509.12-91.924 91.924c-7.0294 7.0294-7.0294 18.426 0 25.456l91.924 91.924c7.0294 7.029 18.426 7.029 25.456 0l91.924-91.924c7.029-7.0294 7.029-18.426 0-25.456l-91.924-91.924c-7.0294-7.0295-18.426-7.0295-25.456 0zm-93.338 90.51c-7.8105 7.8105-7.8105 20.474 0 28.284l91.924 91.924c7.8105 7.811 20.474 7.811 28.284 0l91.924-91.924c7.81-7.8105 7.81-20.474 0-28.284l-91.924-91.924c-7.8105-7.8105-20.474-7.8105-28.284 0zm131.52 131.52 91.924-91.924c7.029-7.0294 18.426-7.0294 25.455 0l91.924 91.924c7.03 7.029 7.03 18.426 0 25.456l-91.924 91.924c-7.029 7.029-18.426 7.029-25.455 0l-91.924-91.924c-7.03-7.03-7.03-18.427 0-25.456zm-1.415 26.87c-7.8101-7.811-7.8101-20.474 0-28.284l91.924-91.924c7.811-7.8105 20.474-7.8105 28.285 0l91.923 91.924c7.811 7.81 7.811 20.473 0 28.284l-91.923 91.924c-7.811 7.81-20.474 7.81-28.285 0zm223.45 11.314-91.924 91.924c-7.029 7.029-7.029 18.426 0 25.455l91.924 91.924c7.03 7.03 18.427 7.03 25.456 0l91.924-91.924c7.029-7.029 7.029-18.426 0-25.455l-91.924-91.924c-7.029-7.03-18.426-7.03-25.456 0zm-93.338 90.509c-7.81 7.811-7.81 20.474 0 28.285l91.924 91.923c7.81 7.811 20.474 7.811 28.284 0l91.924-91.923c7.811-7.811 7.811-20.474 0-28.285l-91.924-91.924c-7.81-7.81-20.474-7.81-28.284 0zm-128.69-388.91 91.924-91.924c7.029-7.03 18.426-7.03 25.455 0l91.924 91.924c7.03 7.029 7.03 18.426 0 25.456l-91.924 91.924c-7.029 7.0294-18.426 7.0294-25.455 0l-91.924-91.924c-7.03-7.0295-7.03-18.426 0-25.456zm-1.415 26.87c-7.8101-7.8105-7.8101-20.474 0-28.285l91.924-91.923c7.811-7.811 20.474-7.811 28.285 0l91.923 91.923c7.811 7.811 7.811 20.474 0 28.285l-91.923 91.924c-7.811 7.8104-20.474 7.8104-28.285 0zm223.45 11.314-91.924 91.924c-7.029 7.0294-7.029 18.426 0 25.456l91.924 91.924c7.03 7.029 18.427 7.029 25.456 0l91.924-91.924c7.029-7.0295 7.029-18.426 0-25.456l-91.924-91.924c-7.029-7.0295-18.426-7.0295-25.456 0zm-93.338 90.51c-7.81 7.8105-7.81 20.474 0 28.284l91.924 91.924c7.81 7.811 20.474 7.811 28.284 0l91.924-91.924c7.811-7.8105 7.811-20.474 0-28.284l-91.924-91.924c-7.81-7.8105-20.474-7.8105-28.284 0zm131.52 131.52 91.924-91.924c7.029-7.0294 18.426-7.0294 25.456 0l91.924 91.924c7.029 7.029 7.029 18.426 0 25.456l-91.924 91.924c-7.03 7.029-18.427 7.029-25.456 0l-91.924-91.924c-7.03-7.03-7.03-18.427 0-25.456zm-1.414 26.87c-7.811-7.811-7.811-20.474 0-28.284l91.924-91.924c7.81-7.8105 20.473-7.8105 28.284 0l91.924 91.924c7.81 7.81 7.81 20.473 0 28.284l-91.924 91.924c-7.811 7.81-20.474 7.81-28.284 0z" clip-rule="evenodd" fill="#fff" fill-rule="evenodd" opacity=".1"/>
  <path d="m141.23 421.6-91.924 91.924c-7.029 7.029-7.029 18.426 0 25.456l91.924 91.924c7.0295 7.029 18.426 7.029 25.456 0l91.924-91.924c7.0294-7.03 7.0294-18.427 0-25.456l-91.924-91.924c-7.0295-7.0294-18.426-7.0294-25.456 0zm-93.338 90.51c-7.81 7.81-7.81 20.473 0 28.284l91.924 91.924c7.8105 7.81 20.474 7.81 28.284 0l91.924-91.924c7.8105-7.811 7.8105-20.474 0-28.284l-91.924-91.924c-7.8105-7.8105-20.474-7.8105-28.284 0zm223.45 39.598-91.924 91.924c-7.0294 7.029-7.0294 18.426 0 25.455l91.924 91.924c7.0294 7.03 18.426 7.03 25.456 0l91.924-91.924c7.029-7.029 7.029-18.426 0-25.455l-91.924-91.924c-7.0294-7.03-18.426-7.03-25.456 0zm-93.338 90.509c-7.8105 7.811-7.8105 20.474 0 28.285l91.924 91.923c7.8105 7.811 20.474 7.811 28.284 0l91.924-91.923c7.81-7.811 7.81-20.474 0-28.285l-91.924-91.924c-7.8105-7.81-20.474-7.81-28.284 0zm131.52 131.52 91.924-91.924c7.029-7.029 18.426-7.029 25.455 0l91.924 91.924c7.03 7.03 7.03 18.427 0 25.456l-91.924 91.924c-7.029 7.029-18.426 7.029-25.455 0l-91.924-91.924c-7.03-7.029-7.03-18.426 0-25.456zm-1.415 26.87c-7.8101-7.81-7.8101-20.474 0-28.284l91.924-91.924c7.811-7.81 20.474-7.81 28.285 0l91.923 91.924c7.811 7.81 7.811 20.474 0 28.284l-91.923 91.924c-7.811 7.811-20.474 7.811-28.285 0zm-36.769-509.12-91.924 91.924c-7.0294 7.0294-7.0294 18.426 0 25.456l91.924 91.924c7.0294 7.029 18.426 7.029 25.456 0l91.924-91.924c7.029-7.0294 7.029-18.426 0-25.456l-91.924-91.924c-7.0294-7.0295-18.426-7.0295-25.456 0zm-93.338 90.51c-7.8105 7.8105-7.8105 20.474 0 28.284l91.924 91.924c7.8105 7.811 20.474 7.811 28.284 0l91.924-91.924c7.81-7.8105 7.81-20.474 0-28.284l-91.924-91.924c-7.8105-7.8105-20.474-7.8105-28.284 0zm131.52 131.52 91.924-91.924c7.029-7.0294 18.426-7.0294 25.455 0l91.924 91.924c7.03 7.029 7.03 18.426 0 25.456l-91.924 91.924c-7.029 7.029-18.426 7.029-25.455 0l-91.924-91.924c-7.03-7.03-7.03-18.427 0-25.456zm-1.415 26.87c-7.8101-7.811-7.8101-20.474 0-28.284l91.924-91.924c7.811-7.8105 20.474-7.8105 28.285 0l91.923 91.924c7.811 7.81 7.811 20.473 0 28.284l-91.923 91.924c-7.811 7.81-20.474 7.81-28.285 0zm223.45 11.314-91.924 91.924c-7.029 7.029-7.029 18.426 0 25.455l91.924 91.924c7.03 7.03 18.427 7.03 25.456 0l91.924-91.924c7.029-7.029 7.029-18.426 0-25.455l-91.924-91.924c-7.029-7.03-18.426-7.03-25.456 0zm-93.338 90.509c-7.81 7.811-7.81 20.474 0 28.285l91.924 91.923c7.81 7.811 20.474 7.811 28.284 0l91.924-91.923c7.811-7.811 7.811-20.474 0-28.285l-91.924-91.924c-7.81-7.81-20.474-7.81-28.284 0zm-128.69-388.91 91.924-91.924c7.029-7.03 18.426-7.03 25.455 0l91.924 91.924c7.03 7.029 7.03 18.426 0 25.456l-91.924 91.924c-7.029 7.0294-18.426 7.0294-25.455 0l-91.924-91.924c-7.03-7.0295-7.03-18.426 0-25.456zm-1.415 26.87c-7.8101-7.8105-7.8101-20.474 0-28.285l91.924-91.923c7.811-7.811 20.474-7.811 28.285 0l91.923 91.923c7.811 7.811 7.811 20.474 0 28.285l-91.923 91.924c-7.811 7.8104-20.474 7.8104-28.285 0zm223.45 11.314-91.924 91.924c-7.029 7.0294-7.029 18.426 0 25.456l91.924 91.924c7.03 7.029 18.427 7.029 25.456 0l91.924-91.924c7.029-7.0295 7.029-18.426 0-25.456l-91.924-91.924c-7.029-7.0295-18.426-7.0295-25.456 0zm-93.338 90.51c-7.81 7.8105-7.81 20.474 0 28.284l91.924 91.924c7.81 7.811 20.474 7.811 28.284 0l91.924-91.924c7.811-7.8105 7.811-20.474 0-28.284l-91.924-91.924c-7.81-7.8105-20.474-7.8105-28.284 0zm131.52 131.52 91.924-91.924c7.029-7.0294 18.426-7.0294 25.456 0l91.924 91.924c7.029 7.029 7.029 18.426 0 25.456l-91.924 91.924c-7.03 7.029-18.427 7.029-25.456 0l-91.924-91.924c-7.03-7.03-7.03-18.427 0-25.456zm-1.414 26.87c-7.811-7.811-7.811-20.474 0-28.284l91.924-91.924c7.81-7.8105 20.473-7.8105 28.284 0l91.924 91.924c7.81 7.81 7.81 20.473 0 28.284l-91.924 91.924c-7.811 7.81-20.474 7.81-28.284 0z" clip-rule="evenodd" fill="#fff" fill-rule="evenodd" opacity=".1"/>
  <ellipse cx="309.52" cy="353.74" rx="220" ry="160" fill="none" stroke="#e3d089"/>
 </g>
 <g transform="translate(-32.033 -15.348)" clip-rule="evenodd" fill="#6f6f6f" fill-rule="evenodd">
  <path d="m270.75 292.84-91.924 91.924c-7.0294 7.029-7.0294 18.426 0 25.455l91.924 91.924c7.0294 7.03 18.426 7.03 25.456 0l91.924-91.924c7.029-7.029 7.029-18.426 0-25.455l-91.924-91.924c-7.0294-7.03-18.426-7.03-25.456 0zm-93.338 90.509c-7.8105 7.811-7.8105 20.474 0 28.285l91.924 91.923c7.8105 7.811 20.474 7.811 28.284 0l91.924-91.923c7.81-7.811 7.81-20.474 0-28.285l-91.924-91.924c-7.8105-7.81-20.474-7.81-28.284 0zm131.52 131.52 91.924-91.924c7.029-7.029 18.426-7.029 25.455 0l91.924 91.924c7.03 7.03 7.03 18.427 0 25.456l-91.924 91.924c-7.029 7.029-18.426 7.029-25.455 0l-91.924-91.924c-7.03-7.029-7.03-18.426 0-25.456zm-1.415 26.87c-7.8101-7.81-7.8101-20.474 0-28.284l91.924-91.924c7.811-7.81 20.474-7.81 28.285 0l91.923 91.924c7.811 7.81 7.811 20.474 0 28.284l-91.923 91.924c-7.811 7.811-20.474 7.811-28.285 0zm-36.769-509.12-91.924 91.924c-7.0294 7.0294-7.0294 18.426 0 25.456l91.924 91.924c7.0294 7.029 18.426 7.029 25.456 0l91.924-91.924c7.029-7.0294 7.029-18.426 0-25.456l-91.924-91.924c-7.0294-7.0295-18.426-7.0295-25.456 0zm-93.338 90.51c-7.8105 7.8105-7.8105 20.474 0 28.284l91.924 91.924c7.8105 7.811 20.474 7.811 28.284 0l91.924-91.924c7.81-7.8105 7.81-20.474 0-28.284l-91.924-91.924c-7.8105-7.8105-20.474-7.8105-28.284 0zm131.52 131.52 91.924-91.924c7.029-7.0294 18.426-7.0294 25.455 0l91.924 91.924c7.03 7.029 7.03 18.426 0 25.456l-91.924 91.924c-7.029 7.029-18.426 7.029-25.455 0l-91.924-91.924c-7.03-7.03-7.03-18.427 0-25.456zm-1.415 26.87c-7.8101-7.811-7.8101-20.474 0-28.284l91.924-91.924c7.811-7.8105 20.474-7.8105 28.285 0l91.923 91.924c7.811 7.81 7.811 20.473 0 28.284l-91.923 91.924c-7.811 7.81-20.474 7.81-28.285 0zm223.45 11.314-91.924 91.924c-7.029 7.029-7.029 18.426 0 25.455l91.924 91.924c7.03 7.03 18.427 7.03 25.456 0l91.924-91.924c7.029-7.029 7.029-18.426 0-25.455l-91.924-91.924c-7.029-7.03-18.426-7.03-25.456 0zm-93.338 90.509c-7.81 7.811-7.81 20.474 0 28.285l91.924 91.923c7.81 7.811 20.474 7.811 28.284 0l91.924-91.923c7.811-7.811 7.811-20.474 0-28.285l-91.924-91.924c-7.81-7.81-20.474-7.81-28.284 0zm93.338-350.72-91.924 91.924c-7.029 7.0294-7.029 18.426 0 25.456l91.924 91.924c7.03 7.029 18.427 7.029 25.456 0l91.924-91.924c7.029-7.0295 7.029-18.426 0-25.456l-91.924-91.924c-7.029-7.0295-18.426-7.0295-25.456 0zm-93.338 90.51c-7.81 7.8105-7.81 20.474 0 28.284l91.924 91.924c7.81 7.811 20.474 7.811 28.284 0l91.924-91.924c7.811-7.8105 7.811-20.474 0-28.284l-91.924-91.924c-7.81-7.8105-20.474-7.8105-28.284 0z" opacity=".1"/>
  <path d="m141.23 421.6-91.924 91.924c-7.029 7.029-7.029 18.426 0 25.456l91.924 91.924c7.0295 7.029 18.426 7.029 25.456 0l91.924-91.924c7.0294-7.03 7.0294-18.427 0-25.456l-91.924-91.924c-7.0295-7.0294-18.426-7.0294-25.456 0zm-93.338 90.51c-7.81 7.81-7.81 20.473 0 28.284l91.924 91.924c7.8105 7.81 20.474 7.81 28.284 0l91.924-91.924c7.8105-7.811 7.8105-20.474 0-28.284l-91.924-91.924c-7.8105-7.8105-20.474-7.8105-28.284 0zm223.45 39.598-91.924 91.924c-7.0294 7.029-7.0294 18.426 0 25.455l91.924 91.924c7.0294 7.03 18.426 7.03 25.456 0l91.924-91.924c7.029-7.029 7.029-18.426 0-25.455l-91.924-91.924c-7.0294-7.03-18.426-7.03-25.456 0zm-93.338 90.509c-7.8105 7.811-7.8105 20.474 0 28.285l91.924 91.923c7.8105 7.811 20.474 7.811 28.284 0l91.924-91.923c7.81-7.811 7.81-20.474 0-28.285l-91.924-91.924c-7.8105-7.81-20.474-7.81-28.284 0zm131.52 131.52 91.924-91.924c7.029-7.029 18.426-7.029 25.455 0l91.924 91.924c7.03 7.03 7.03 18.427 0 25.456l-91.924 91.924c-7.029 7.029-18.426 7.029-25.455 0l-91.924-91.924c-7.03-7.029-7.03-18.426 0-25.456zm-1.415 26.87c-7.8101-7.81-7.8101-20.474 0-28.284l91.924-91.924c7.811-7.81 20.474-7.81 28.285 0l91.923 91.924c7.811 7.81 7.811 20.474 0 28.284l-91.923 91.924c-7.811 7.811-20.474 7.811-28.285 0zm-36.769-509.12-91.924 91.924c-7.0294 7.0294-7.0294 18.426 0 25.456l91.924 91.924c7.0294 7.029 18.426 7.029 25.456 0l91.924-91.924c7.029-7.0294 7.029-18.426 0-25.456l-91.924-91.924c-7.0294-7.0295-18.426-7.0295-25.456 0zm-93.338 90.51c-7.8105 7.8105-7.8105 20.474 0 28.284l91.924 91.924c7.8105 7.811 20.474 7.811 28.284 0l91.924-91.924c7.81-7.8105 7.81-20.474 0-28.284l-91.924-91.924c-7.8105-7.8105-20.474-7.8105-28.284 0zm131.52 131.52 91.924-91.924c7.029-7.0294 18.426-7.0294 25.455 0l91.924 91.924c7.03 7.029 7.03 18.426 0 25.456l-91.924 91.924c-7.029 7.029-18.426 7.029-25.455 0l-91.924-91.924c-7.03-7.03-7.03-18.427 0-25.456zm-1.415 26.87c-7.8101-7.811-7.8101-20.474 0-28.284l91.924-91.924c7.811-7.8105 20.474-7.8105 28.285 0l91.923 91.924c7.811 7.81 7.811 20.473 0 28.284l-91.923 91.924c-7.811 7.81-20.474 7.81-28.285 0zm223.45 11.314-91.924 91.924c-7.029 7.029-7.029 18.426 0 25.455l91.924 91.924c7.03 7.03 18.427 7.03 25.456 0l91.924-91.924c7.029-7.029 7.029-18.426 0-25.455l-91.924-91.924c-7.029-7.03-18.426-7.03-25.456 0zm-93.338 90.509c-7.81 7.811-7.81 20.474 0 28.285l91.924 91.923c7.81 7.811 20.474 7.811 28.284 0l91.924-91.923c7.811-7.811 7.811-20.474 0-28.285l-91.924-91.924c-7.81-7.81-20.474-7.81-28.284 0zm-128.69-388.91 91.924-91.924c7.029-7.03 18.426-7.03 25.455 0l91.924 91.924c7.03 7.029 7.03 18.426 0 25.456l-91.924 91.924c-7.029 7.0294-18.426 7.0294-25.455 0l-91.924-91.924c-7.03-7.0295-7.03-18.426 0-25.456zm-1.415 26.87c-7.8101-7.8105-7.8101-20.474 0-28.285l91.924-91.923c7.811-7.811 20.474-7.811 28.285 0l91.923 91.923c7.811 7.811 7.811 20.474 0 28.285l-91.923 91.924c-7.811 7.8104-20.474 7.8104-28.285 0zm223.45 11.314-91.924 91.924c-7.029 7.0294-7.029 18.426 0 25.456l91.924 91.924c7.03 7.029 18.427 7.029 25.456 0l91.924-91.924c7.029-7.0295 7.029-18.426 0-25.456l-91.924-91.924c-7.029-7.0295-18.426-7.0295-25.456 0zm-93.338 90.51c-7.81 7.8105-7.81 20.474 0 28.284l91.924 91.924c7.81 7.811 20.474 7.811 28.284 0l91.924-91.924c7.811-7.8105 7.811-20.474 0-28.284l-91.924-91.924c-7.81-7.8105-20.474-7.8105-28.284 0zm131.52 131.52 91.924-91.924c7.029-7.0294 18.426-7.0294 25.456 0l91.924 91.924c7.029 7.029 7.029 18.426 0 25.456l-91.924 91.924c-7.03 7.029-18.427 7.029-25.456 0l-91.924-91.924c-7.03-7.03-7.03-18.427 0-25.456zm-1.414 26.87c-7.811-7.811-7.811-20.474 0-28.284l91.924-91.924c7.81-7.8105 20.473-7.8105 28.284 0l91.924 91.924c7.81 7.81 7.81 20.473 0 28.284l-91.924 91.924c-7.811 7.81-20.474 7.81-28.284 0z" opacity=".1"/>
 </g>
 <g transform="translate(-152.03 184.65)" clip-rule="evenodd" display="none" fill="#fff" fill-rule="evenodd">
  <path d="m140.64 162.73-91.924 91.924c-7.029 7.029-7.029 18.426 0 25.456l91.924 91.924c7.0295 7.029 18.426 7.029 25.456 0l91.924-91.924c7.0294-7.03 7.0294-18.427 0-25.456l-91.924-91.924c-7.0295-7.0294-18.426-7.0294-25.456 0zm-93.338 90.51c-7.81 7.81-7.81 20.473 0 28.284l91.924 91.924c7.8105 7.81 20.474 7.81 28.284 0l91.924-91.924c7.8105-7.811 7.8105-20.474 0-28.284l-91.924-91.924c-7.8105-7.8105-20.474-7.8105-28.284 0zm223.45 39.598-91.924 91.924c-7.0294 7.029-7.0294 18.426 0 25.455l91.924 91.924c7.0294 7.03 18.426 7.03 25.456 0l91.924-91.924c7.029-7.029 7.029-18.426 0-25.455l-91.924-91.924c-7.0294-7.03-18.426-7.03-25.456 0zm-93.338 90.509c-7.8105 7.811-7.8105 20.474 0 28.285l91.924 91.923c7.8105 7.811 20.474 7.811 28.284 0l91.924-91.923c7.81-7.811 7.81-20.474 0-28.285l-91.924-91.924c-7.8105-7.81-20.474-7.81-28.284 0zm131.52 131.52 91.924-91.924c7.029-7.029 18.426-7.029 25.455 0l91.924 91.924c7.03 7.03 7.03 18.427 0 25.456l-91.924 91.924c-7.029 7.029-18.426 7.029-25.455 0l-91.924-91.924c-7.03-7.029-7.03-18.426 0-25.456zm-1.415 26.87c-7.8101-7.81-7.8101-20.474 0-28.284l91.924-91.924c7.811-7.81 20.474-7.81 28.285 0l91.923 91.924c7.811 7.81 7.811 20.474 0 28.284l-91.923 91.924c-7.811 7.811-20.474 7.811-28.285 0zm-36.769-509.12-91.924 91.924c-7.0294 7.0294-7.0294 18.426 0 25.456l91.924 91.924c7.0294 7.029 18.426 7.029 25.456 0l91.924-91.924c7.029-7.0294 7.029-18.426 0-25.456l-91.924-91.924c-7.0294-7.0295-18.426-7.0295-25.456 0zm-93.338 90.51c-7.8105 7.8105-7.8105 20.474 0 28.284l91.924 91.924c7.8105 7.811 20.474 7.811 28.284 0l91.924-91.924c7.81-7.8105 7.81-20.474 0-28.284l-91.924-91.924c-7.8105-7.8105-20.474-7.8105-28.284 0zm131.52 131.52 91.924-91.924c7.029-7.0294 18.426-7.0294 25.455 0l91.924 91.924c7.03 7.029 7.03 18.426 0 25.456l-91.924 91.924c-7.029 7.029-18.426 7.029-25.455 0l-91.924-91.924c-7.03-7.03-7.03-18.427 0-25.456zm-1.415 26.87c-7.8101-7.811-7.8101-20.474 0-28.284l91.924-91.924c7.811-7.8105 20.474-7.8105 28.285 0l91.923 91.924c7.811 7.81 7.811 20.473 0 28.284l-91.923 91.924c-7.811 7.81-20.474 7.81-28.285 0zm223.45 11.314-91.924 91.924c-7.029 7.029-7.029 18.426 0 25.455l91.924 91.924c7.03 7.03 18.427 7.03 25.456 0l91.924-91.924c7.029-7.029 7.029-18.426 0-25.455l-91.924-91.924c-7.029-7.03-18.426-7.03-25.456 0zm-93.338 90.509c-7.81 7.811-7.81 20.474 0 28.285l91.924 91.923c7.81 7.811 20.474 7.811 28.284 0l91.924-91.923c7.811-7.811 7.811-20.474 0-28.285l-91.924-91.924c-7.81-7.81-20.474-7.81-28.284 0zm-128.69-388.91 91.924-91.924c7.029-7.03 18.426-7.03 25.455 0l91.924 91.924c7.03 7.029 7.03 18.426 0 25.456l-91.924 91.924c-7.029 7.0294-18.426 7.0294-25.455 0l-91.924-91.924c-7.03-7.0295-7.03-18.426 0-25.456zm-1.415 26.87c-7.8101-7.8105-7.8101-20.474 0-28.285l91.924-91.923c7.811-7.811 20.474-7.811 28.285 0l91.923 91.923c7.811 7.811 7.811 20.474 0 28.285l-91.923 91.924c-7.811 7.8104-20.474 7.8104-28.285 0zm223.45 11.314-91.924 91.924c-7.029 7.0294-7.029 18.426 0 25.456l91.924 91.924c7.03 7.029 18.427 7.029 25.456 0l91.924-91.924c7.029-7.0295 7.029-18.426 0-25.456l-91.924-91.924c-7.029-7.0295-18.426-7.0295-25.456 0zm-93.338 90.51c-7.81 7.8105-7.81 20.474 0 28.284l91.924 91.924c7.81 7.811 20.474 7.811 28.284 0l91.924-91.924c7.811-7.8105 7.811-20.474 0-28.284l-91.924-91.924c-7.81-7.8105-20.474-7.8105-28.284 0zm131.52 131.52 91.924-91.924c7.029-7.0294 18.426-7.0294 25.456 0l91.924 91.924c7.029 7.029 7.029 18.426 0 25.456l-91.924 91.924c-7.03 7.029-18.427 7.029-25.456 0l-91.924-91.924c-7.03-7.03-7.03-18.427 0-25.456zm-1.414 26.87c-7.811-7.811-7.811-20.474 0-28.284l91.924-91.924c7.81-7.8105 20.473-7.8105 28.284 0l91.924 91.924c7.81 7.81 7.81 20.473 0 28.284l-91.924 91.924c-7.811 7.81-20.474 7.81-28.284 0z" display="inline" opacity=".1"/>
  <path d="m141.23 421.6-91.924 91.924c-7.029 7.029-7.029 18.426 0 25.456l91.924 91.924c7.0295 7.029 18.426 7.029 25.456 0l91.924-91.924c7.0294-7.03 7.0294-18.427 0-25.456l-91.924-91.924c-7.0295-7.0294-18.426-7.0294-25.456 0zm-93.338 90.51c-7.81 7.81-7.81 20.473 0 28.284l91.924 91.924c7.8105 7.81 20.474 7.81 28.284 0l91.924-91.924c7.8105-7.811 7.8105-20.474 0-28.284l-91.924-91.924c-7.8105-7.8105-20.474-7.8105-28.284 0zm223.45 39.598-91.924 91.924c-7.0294 7.029-7.0294 18.426 0 25.455l91.924 91.924c7.0294 7.03 18.426 7.03 25.456 0l91.924-91.924c7.029-7.029 7.029-18.426 0-25.455l-91.924-91.924c-7.0294-7.03-18.426-7.03-25.456 0zm-93.338 90.509c-7.8105 7.811-7.8105 20.474 0 28.285l91.924 91.923c7.8105 7.811 20.474 7.811 28.284 0l91.924-91.923c7.81-7.811 7.81-20.474 0-28.285l-91.924-91.924c-7.8105-7.81-20.474-7.81-28.284 0zm131.52 131.52 91.924-91.924c7.029-7.029 18.426-7.029 25.455 0l91.924 91.924c7.03 7.03 7.03 18.427 0 25.456l-91.924 91.924c-7.029 7.029-18.426 7.029-25.455 0l-91.924-91.924c-7.03-7.029-7.03-18.426 0-25.456zm-1.415 26.87c-7.8101-7.81-7.8101-20.474 0-28.284l91.924-91.924c7.811-7.81 20.474-7.81 28.285 0l91.923 91.924c7.811 7.81 7.811 20.474 0 28.284l-91.923 91.924c-7.811 7.811-20.474 7.811-28.285 0zm-36.769-509.12-91.924 91.924c-7.0294 7.0294-7.0294 18.426 0 25.456l91.924 91.924c7.0294 7.029 18.426 7.029 25.456 0l91.924-91.924c7.029-7.0294 7.029-18.426 0-25.456l-91.924-91.924c-7.0294-7.0295-18.426-7.0295-25.456 0zm-93.338 90.51c-7.8105 7.8105-7.8105 20.474 0 28.284l91.924 91.924c7.8105 7.811 20.474 7.811 28.284 0l91.924-91.924c7.81-7.8105 7.81-20.474 0-28.284l-91.924-91.924c-7.8105-7.8105-20.474-7.8105-28.284 0zm131.52 131.52 91.924-91.924c7.029-7.0294 18.426-7.0294 25.455 0l91.924 91.924c7.03 7.029 7.03 18.426 0 25.456l-91.924 91.924c-7.029 7.029-18.426 7.029-25.455 0l-91.924-91.924c-7.03-7.03-7.03-18.427 0-25.456zm-1.415 26.87c-7.8101-7.811-7.8101-20.474 0-28.284l91.924-91.924c7.811-7.8105 20.474-7.8105 28.285 0l91.923 91.924c7.811 7.81 7.811 20.473 0 28.284l-91.923 91.924c-7.811 7.81-20.474 7.81-28.285 0zm223.45 11.314-91.924 91.924c-7.029 7.029-7.029 18.426 0 25.455l91.924 91.924c7.03 7.03 18.427 7.03 25.456 0l91.924-91.924c7.029-7.029 7.029-18.426 0-25.455l-91.924-91.924c-7.029-7.03-18.426-7.03-25.456 0zm-93.338 90.509c-7.81 7.811-7.81 20.474 0 28.285l91.924 91.923c7.81 7.811 20.474 7.811 28.284 0l91.924-91.923c7.811-7.811 7.811-20.474 0-28.285l-91.924-91.924c-7.81-7.81-20.474-7.81-28.284 0zm-128.69-388.91 91.924-91.924c7.029-7.03 18.426-7.03 25.455 0l91.924 91.924c7.03 7.029 7.03 18.426 0 25.456l-91.924 91.924c-7.029 7.0294-18.426 7.0294-25.455 0l-91.924-91.924c-7.03-7.0295-7.03-18.426 0-25.456zm-1.415 26.87c-7.8101-7.8105-7.8101-20.474 0-28.285l91.924-91.923c7.811-7.811 20.474-7.811 28.285 0l91.923 91.923c7.811 7.811 7.811 20.474 0 28.285l-91.923 91.924c-7.811 7.8104-20.474 7.8104-28.285 0zm223.45 11.314-91.924 91.924c-7.029 7.0294-7.029 18.426 0 25.456l91.924 91.924c7.03 7.029 18.427 7.029 25.456 0l91.924-91.924c7.029-7.0295 7.029-18.426 0-25.456l-91.924-91.924c-7.029-7.0295-18.426-7.0295-25.456 0zm-93.338 90.51c-7.81 7.8105-7.81 20.474 0 28.284l91.924 91.924c7.81 7.811 20.474 7.811 28.284 0l91.924-91.924c7.811-7.8105 7.811-20.474 0-28.284l-91.924-91.924c-7.81-7.8105-20.474-7.8105-28.284 0zm131.52 131.52 91.924-91.924c7.029-7.0294 18.426-7.0294 25.456 0l91.924 91.924c7.029 7.029 7.029 18.426 0 25.456l-91.924 91.924c-7.03 7.029-18.427 7.029-25.456 0l-91.924-91.924c-7.03-7.03-7.03-18.427 0-25.456zm-1.414 26.87c-7.811-7.811-7.811-20.474 0-28.284l91.924-91.924c7.81-7.8105 20.473-7.8105 28.284 0l91.924 91.924c7.81 7.81 7.81 20.473 0 28.284l-91.924 91.924c-7.811 7.81-20.474 7.81-28.284 0z" display="inline" opacity=".1"/>
 </g>
 <g transform="translate(-1642.1 -32.956)" clip-rule="evenodd" display="none" fill="#fff" fill-rule="evenodd">
  <path d="m140.64 162.73-91.924 91.924c-7.029 7.029-7.029 18.426 0 25.456l91.924 91.924c7.0295 7.029 18.426 7.029 25.456 0l91.924-91.924c7.0294-7.03 7.0294-18.427 0-25.456l-91.924-91.924c-7.0295-7.0294-18.426-7.0294-25.456 0zm-93.338 90.51c-7.81 7.81-7.81 20.473 0 28.284l91.924 91.924c7.8105 7.81 20.474 7.81 28.284 0l91.924-91.924c7.8105-7.811 7.8105-20.474 0-28.284l-91.924-91.924c-7.8105-7.8105-20.474-7.8105-28.284 0zm223.45 39.598-91.924 91.924c-7.0294 7.029-7.0294 18.426 0 25.455l91.924 91.924c7.0294 7.03 18.426 7.03 25.456 0l91.924-91.924c7.029-7.029 7.029-18.426 0-25.455l-91.924-91.924c-7.0294-7.03-18.426-7.03-25.456 0zm-93.338 90.509c-7.8105 7.811-7.8105 20.474 0 28.285l91.924 91.923c7.8105 7.811 20.474 7.811 28.284 0l91.924-91.923c7.81-7.811 7.81-20.474 0-28.285l-91.924-91.924c-7.8105-7.81-20.474-7.81-28.284 0zm131.52 131.52 91.924-91.924c7.029-7.029 18.426-7.029 25.455 0l91.924 91.924c7.03 7.03 7.03 18.427 0 25.456l-91.924 91.924c-7.029 7.029-18.426 7.029-25.455 0l-91.924-91.924c-7.03-7.029-7.03-18.426 0-25.456zm-1.415 26.87c-7.8101-7.81-7.8101-20.474 0-28.284l91.924-91.924c7.811-7.81 20.474-7.81 28.285 0l91.923 91.924c7.811 7.81 7.811 20.474 0 28.284l-91.923 91.924c-7.811 7.811-20.474 7.811-28.285 0zm-36.769-509.12-91.924 91.924c-7.0294 7.0294-7.0294 18.426 0 25.456l91.924 91.924c7.0294 7.029 18.426 7.029 25.456 0l91.924-91.924c7.029-7.0294 7.029-18.426 0-25.456l-91.924-91.924c-7.0294-7.0295-18.426-7.0295-25.456 0zm-93.338 90.51c-7.8105 7.8105-7.8105 20.474 0 28.284l91.924 91.924c7.8105 7.811 20.474 7.811 28.284 0l91.924-91.924c7.81-7.8105 7.81-20.474 0-28.284l-91.924-91.924c-7.8105-7.8105-20.474-7.8105-28.284 0zm131.52 131.52 91.924-91.924c7.029-7.0294 18.426-7.0294 25.455 0l91.924 91.924c7.03 7.029 7.03 18.426 0 25.456l-91.924 91.924c-7.029 7.029-18.426 7.029-25.455 0l-91.924-91.924c-7.03-7.03-7.03-18.427 0-25.456zm-1.415 26.87c-7.8101-7.811-7.8101-20.474 0-28.284l91.924-91.924c7.811-7.8105 20.474-7.8105 28.285 0l91.923 91.924c7.811 7.81 7.811 20.473 0 28.284l-91.923 91.924c-7.811 7.81-20.474 7.81-28.285 0zm223.45 11.314-91.924 91.924c-7.029 7.029-7.029 18.426 0 25.455l91.924 91.924c7.03 7.03 18.427 7.03 25.456 0l91.924-91.924c7.029-7.029 7.029-18.426 0-25.455l-91.924-91.924c-7.029-7.03-18.426-7.03-25.456 0zm-93.338 90.509c-7.81 7.811-7.81 20.474 0 28.285l91.924 91.923c7.81 7.811 20.474 7.811 28.284 0l91.924-91.923c7.811-7.811 7.811-20.474 0-28.285l-91.924-91.924c-7.81-7.81-20.474-7.81-28.284 0zm-128.69-388.91 91.924-91.924c7.029-7.03 18.426-7.03 25.455 0l91.924 91.924c7.03 7.029 7.03 18.426 0 25.456l-91.924 91.924c-7.029 7.0294-18.426 7.0294-25.455 0l-91.924-91.924c-7.03-7.0295-7.03-18.426 0-25.456zm-1.415 26.87c-7.8101-7.8105-7.8101-20.474 0-28.285l91.924-91.923c7.811-7.811 20.474-7.811 28.285 0l91.923 91.923c7.811 7.811 7.811 20.474 0 28.285l-91.923 91.924c-7.811 7.8104-20.474 7.8104-28.285 0zm223.45 11.314-91.924 91.924c-7.029 7.0294-7.029 18.426 0 25.456l91.924 91.924c7.03 7.029 18.427 7.029 25.456 0l91.924-91.924c7.029-7.0295 7.029-18.426 0-25.456l-91.924-91.924c-7.029-7.0295-18.426-7.0295-25.456 0zm-93.338 90.51c-7.81 7.8105-7.81 20.474 0 28.284l91.924 91.924c7.81 7.811 20.474 7.811 28.284 0l91.924-91.924c7.811-7.8105 7.811-20.474 0-28.284l-91.924-91.924c-7.81-7.8105-20.474-7.8105-28.284 0zm131.52 131.52 91.924-91.924c7.029-7.0294 18.426-7.0294 25.456 0l91.924 91.924c7.029 7.029 7.029 18.426 0 25.456l-91.924 91.924c-7.03 7.029-18.427 7.029-25.456 0l-91.924-91.924c-7.03-7.03-7.03-18.427 0-25.456zm-1.414 26.87c-7.811-7.811-7.811-20.474 0-28.284l91.924-91.924c7.81-7.8105 20.473-7.8105 28.284 0l91.924 91.924c7.81 7.81 7.81 20.473 0 28.284l-91.924 91.924c-7.811 7.81-20.474 7.81-28.284 0z" display="inline" opacity=".1"/>
  <path d="m141.23 681.6-91.924 91.924c-7.029 7.029-7.029 18.426 0 25.456l91.924 91.924c7.0295 7.029 18.426 7.029 25.456 0l91.924-91.924c7.0294-7.03 7.0294-18.427 0-25.456l-91.924-91.924c-7.0295-7.0294-18.426-7.0294-25.456 0zm-93.338 90.51c-7.81 7.81-7.81 20.473 0 28.284l91.924 91.924c7.8105 7.81 20.474 7.81 28.284 0l91.924-91.924c7.8105-7.811 7.8105-20.474 0-28.284l-91.924-91.924c-7.8105-7.8105-20.474-7.8105-28.284 0zm223.45 39.598-91.924 91.924c-7.0294 7.029-7.0294 18.426 0 25.455l91.924 91.924c7.0294 7.03 18.426 7.03 25.456 0l91.924-91.924c7.029-7.029 7.029-18.426 0-25.455l-91.924-91.924c-7.0294-7.03-18.426-7.03-25.456 0zm-93.338 90.509c-7.8105 7.811-7.8105 20.474 0 28.285l91.924 91.923c7.8105 7.811 20.474 7.811 28.284 0l91.924-91.923c7.81-7.811 7.81-20.474 0-28.285l-91.924-91.924c-7.8105-7.81-20.474-7.81-28.284 0zm131.52 131.52 91.924-91.924c7.029-7.029 18.426-7.029 25.455 0l91.924 91.924c7.03 7.03 7.03 18.427 0 25.456l-91.924 91.924c-7.029 7.029-18.426 7.029-25.455 0l-91.924-91.924c-7.03-7.029-7.03-18.426 0-25.456zm-1.415 26.87c-7.8101-7.81-7.8101-20.474 0-28.284l91.924-91.924c7.811-7.81 20.474-7.81 28.285 0l91.923 91.924c7.811 7.81 7.811 20.474 0 28.284l-91.923 91.924c-7.811 7.811-20.474 7.811-28.285 0zm-36.769-509.12-91.924 91.924c-7.0294 7.0294-7.0294 18.426 0 25.456l91.924 91.924c7.0294 7.029 18.426 7.029 25.456 0l91.924-91.924c7.029-7.0294 7.029-18.426 0-25.456l-91.924-91.924c-7.0294-7.0295-18.426-7.0295-25.456 0zm-93.338 90.51c-7.8105 7.8105-7.8105 20.474 0 28.284l91.924 91.924c7.8105 7.811 20.474 7.811 28.284 0l91.924-91.924c7.81-7.8105 7.81-20.474 0-28.284l-91.924-91.924c-7.8105-7.8105-20.474-7.8105-28.284 0zm131.52 131.52 91.924-91.924c7.029-7.0294 18.426-7.0294 25.455 0l91.924 91.924c7.03 7.029 7.03 18.426 0 25.456l-91.924 91.924c-7.029 7.029-18.426 7.029-25.455 0l-91.924-91.924c-7.03-7.03-7.03-18.427 0-25.456zm-1.415 26.87c-7.8101-7.811-7.8101-20.474 0-28.284l91.924-91.924c7.811-7.8105 20.474-7.8105 28.285 0l91.923 91.924c7.811 7.81 7.811 20.473 0 28.284l-91.923 91.924c-7.811 7.81-20.474 7.81-28.285 0zm223.45 11.314-91.924 91.924c-7.029 7.029-7.029 18.426 0 25.455l91.924 91.924c7.03 7.03 18.427 7.03 25.456 0l91.924-91.924c7.029-7.029 7.029-18.426 0-25.455l-91.924-91.924c-7.029-7.03-18.426-7.03-25.456 0zm-93.338 90.509c-7.81 7.811-7.81 20.474 0 28.285l91.924 91.923c7.81 7.811 20.474 7.811 28.284 0l91.924-91.923c7.811-7.811 7.811-20.474 0-28.285l-91.924-91.924c-7.81-7.81-20.474-7.81-28.284 0zm-128.69-388.91 91.924-91.924c7.029-7.03 18.426-7.03 25.455 0l91.924 91.924c7.03 7.029 7.03 18.426 0 25.456l-91.924 91.924c-7.029 7.0294-18.426 7.0294-25.455 0l-91.924-91.924c-7.03-7.0295-7.03-18.426 0-25.456zm-1.415 26.87c-7.8101-7.8105-7.8101-20.474 0-28.285l91.924-91.923c7.811-7.811 20.474-7.811 28.285 0l91.923 91.923c7.811 7.811 7.811 20.474 0 28.285l-91.923 91.924c-7.811 7.8104-20.474 7.8104-28.285 0zm223.45 11.314-91.924 91.924c-7.029 7.0294-7.029 18.426 0 25.456l91.924 91.924c7.03 7.029 18.427 7.029 25.456 0l91.924-91.924c7.029-7.0295 7.029-18.426 0-25.456l-91.924-91.924c-7.029-7.0295-18.426-7.0295-25.456 0zm-93.338 90.51c-7.81 7.8105-7.81 20.474 0 28.284l91.924 91.924c7.81 7.811 20.474 7.811 28.284 0l91.924-91.924c7.811-7.8105 7.811-20.474 0-28.284l-91.924-91.924c-7.81-7.8105-20.474-7.8105-28.284 0zm131.52 131.52 91.924-91.924c7.029-7.0294 18.426-7.0294 25.456 0l91.924 91.924c7.029 7.029 7.029 18.426 0 25.456l-91.924 91.924c-7.03 7.029-18.427 7.029-25.456 0l-91.924-91.924c-7.03-7.03-7.03-18.427 0-25.456zm-1.414 26.87c-7.811-7.811-7.811-20.474 0-28.284l91.924-91.924c7.81-7.8105 20.473-7.8105 28.284 0l91.924 91.924c7.81 7.81 7.81 20.473 0 28.284l-91.924 91.924c-7.811 7.81-20.474 7.81-28.284 0z" display="inline" opacity=".1"/>
 </g>
</svg>
